<svg xmlns="http://www.w3.org/2000/svg" viewBox="0 0 300 610" width="260">
  <defs>
    <clipPath id="nr-screen"><rect x="8" y="8" width="284" height="594" rx="42"/></clipPath>
  </defs>

  <!-- Phone body -->
  <rect x="1" y="1" width="298" height="608" rx="48" fill="#1C1C1E"/>
  <rect x="0" y="148" width="2" height="32" rx="1" fill="#2C2C2E"/>
  <rect x="0" y="196" width="2" height="52" rx="1" fill="#2C2C2E"/>
  <rect x="0" y="258" width="2" height="52" rx="1" fill="#2C2C2E"/>
  <rect x="298" y="178" width="2" height="72" rx="1" fill="#2C2C2E"/>

  <g clip-path="url(#nr-screen)">
    <rect x="8" y="8" width="284" height="594" fill="#F2F2F7"/>

    <!-- Status bar -->
    <rect x="8" y="8" width="284" height="46" fill="white"/>
    <rect x="110" y="13" width="80" height="28" rx="14" fill="#1C1C1E"/>
    <text x="26" y="34" font-family="-apple-system,BlinkMacSystemFont,sans-serif" font-size="13" font-weight="600" fill="#000">9:41</text>
    <rect x="246" y="23" width="26" height="12" rx="3" fill="none" stroke="#000" stroke-width="1.2" opacity="0.6"/>
    <rect x="272" y="26" width="2" height="6" rx="1" fill="#000" opacity="0.4"/>
    <rect x="247" y="24" width="19" height="10" rx="2" fill="#34C759"/>
    <rect x="226" y="30" width="3" height="6" rx="1" fill="#000" opacity="0.7"/>
    <rect x="232" y="27" width="3" height="9" rx="1" fill="#000" opacity="0.7"/>
    <rect x="238" y="24" width="3" height="12" rx="1" fill="#000" opacity="0.7"/>

    <!-- Nav bar -->
    <rect x="8" y="54" width="284" height="82" fill="white"/>
    <text x="22" y="114" font-family="-apple-system,BlinkMacSystemFont,sans-serif" font-size="30" font-weight="700" fill="#000">Notifications</text>
    <!-- Paste button (top right) -->
    <text x="258" y="104" font-family="-apple-system,sans-serif" font-size="13" fill="#007AFF">Paste</text>

    <!-- Content -->
    <rect x="8" y="136" width="284" height="380" fill="#F2F2F7"/>

    <!-- Pending card 1: Grab -->
    <rect x="16" y="144" width="268" height="126" rx="16" fill="white"/>
    <!-- Header row -->
    <rect x="30" y="158" width="20" height="20" rx="6" fill="#EFF6FF"/>
    <rect x="33" y="164" width="14" height="8" rx="2" fill="#3B82F6"/>
    <circle cx="37" cy="173" r="2.5" fill="#3B82F6"/>
    <circle cx="44" cy="173" r="2.5" fill="#3B82F6"/>
    <text x="58" y="172" font-family="-apple-system,BlinkMacSystemFont,sans-serif" font-size="14" font-weight="600" fill="#000">Grab</text>
    <text x="270" y="172" font-family="-apple-system,BlinkMacSystemFont,sans-serif" font-size="16" font-weight="700" fill="#000" text-anchor="end">RM 14.00</text>
    <!-- Category + date row -->
    <rect x="30" y="182" width="76" height="20" rx="10" fill="#EFF6FF"/>
    <text x="68" y="196" font-family="-apple-system,sans-serif" font-size="11" fill="#3B82F6" text-anchor="middle">Transportation</text>
    <text x="270" y="196" font-family="-apple-system,sans-serif" font-size="11" fill="#8E8E93" text-anchor="end">Apr 25</text>
    <!-- Raw text -->
    <text x="30" y="215" font-family="-apple-system,sans-serif" font-size="11" fill="#9CA3AF">Grab: RM14.00 GrabCar ride completed</text>
    <!-- Buttons -->
    <rect x="30" y="226" width="112" height="34" rx="9" fill="#F2F2F7"/>
    <text x="86" y="247" font-family="-apple-system,BlinkMacSystemFont,sans-serif" font-size="13" font-weight="500" fill="#374151" text-anchor="middle">Dismiss</text>
    <rect x="150" y="226" width="118" height="34" rx="9" fill="#007AFF"/>
    <text x="209" y="247" font-family="-apple-system,BlinkMacSystemFont,sans-serif" font-size="13" font-weight="600" fill="white" text-anchor="middle">Add Expense</text>

    <!-- Pending card 2: Maybank -->
    <rect x="16" y="280" width="268" height="126" rx="16" fill="white"/>
    <rect x="30" y="294" width="20" height="20" rx="6" fill="#FFF7ED"/>
    <rect x="37" y="300" width="6" height="10" rx="3" fill="#F97316"/>
    <rect x="32" y="305" width="16" height="3" rx="1" fill="#F97316"/>
    <text x="58" y="308" font-family="-apple-system,BlinkMacSystemFont,sans-serif" font-size="14" font-weight="600" fill="#000">Jaya Grocer</text>
    <text x="270" y="308" font-family="-apple-system,BlinkMacSystemFont,sans-serif" font-size="16" font-weight="700" fill="#000" text-anchor="end">RM 67.80</text>
    <rect x="30" y="318" width="60" height="20" rx="10" fill="#FFF7ED"/>
    <text x="60" y="332" font-family="-apple-system,sans-serif" font-size="11" fill="#F97316" text-anchor="middle">Groceries</text>
    <text x="270" y="332" font-family="-apple-system,sans-serif" font-size="11" fill="#8E8E93" text-anchor="end">Apr 24</text>
    <text x="30" y="351" font-family="-apple-system,sans-serif" font-size="11" fill="#9CA3AF">Maybank: RM67.80 at Jaya Grocer TTDI</text>
    <rect x="30" y="362" width="112" height="34" rx="9" fill="#F2F2F7"/>
    <text x="86" y="383" font-family="-apple-system,BlinkMacSystemFont,sans-serif" font-size="13" font-weight="500" fill="#374151" text-anchor="middle">Dismiss</text>
    <rect x="150" y="362" width="118" height="34" rx="9" fill="#007AFF"/>
    <text x="209" y="383" font-family="-apple-system,BlinkMacSystemFont,sans-serif" font-size="13" font-weight="600" fill="white" text-anchor="middle">Add Expense</text>

    <!-- Paste area hint -->
    <rect x="16" y="418" width="268" height="52" rx="14" fill="white" stroke="#E5E5EA" stroke-width="1"/>
    <text x="150" y="438" font-family="-apple-system,sans-serif" font-size="13" fill="#8E8E93" text-anchor="middle">Paste notification text…</text>
    <text x="150" y="455" font-family="-apple-system,sans-serif" font-size="11" fill="#007AFF" text-anchor="middle">or use trackos://expense?text=</text>

    <!-- Tab bar -->
    <rect x="8" y="516" width="284" height="86" fill="white"/>
    <line x1="8" y1="516" x2="292" y2="516" stroke="#E5E5EA" stroke-width="0.5"/>
    <!-- Dashboard -->
    <circle cx="44" cy="535" r="5" fill="#8E8E93"/>
    <text x="44" y="557" font-family="-apple-system,sans-serif" font-size="10" fill="#8E8E93" text-anchor="middle">Dashboard</text>
    <!-- Expenses -->
    <rect x="107" y="526" width="16" height="2" rx="1" fill="#8E8E93"/>
    <rect x="107" y="531" width="16" height="2" rx="1" fill="#8E8E93"/>
    <rect x="107" y="536" width="10" height="2" rx="1" fill="#8E8E93"/>
    <text x="115" y="557" font-family="-apple-system,sans-serif" font-size="10" fill="#8E8E93" text-anchor="middle">Expenses</text>
    <!-- Scan -->
    <rect x="178" y="525" width="16" height="18" rx="4" fill="none" stroke="#8E8E93" stroke-width="1.5"/>
    <rect x="181" y="529" width="10" height="2" rx="0.5" fill="#8E8E93"/>
    <rect x="181" y="533" width="10" height="2" rx="0.5" fill="#8E8E93"/>
    <rect x="181" y="537" width="6" height="2" rx="0.5" fill="#8E8E93"/>
    <text x="186" y="557" font-family="-apple-system,sans-serif" font-size="10" fill="#8E8E93" text-anchor="middle">Scan</text>
    <!-- Notifications (active + badge) -->
    <circle cx="251" cy="535" r="12" fill="#EBF5FF"/>
    <path d="M249 526 C249 526 244 526 244 531 L244 537 L257 537 L257 531 C257 526 252 526 252 526 Z" fill="none" stroke="#007AFF" stroke-width="1.5" stroke-linejoin="round"/>
    <rect x="247" y="537" width="9" height="2" rx="1" fill="#007AFF"/>
    <!-- Badge -->
    <circle cx="260" cy="522" r="7" fill="#FF3B30"/>
    <text x="260" y="526" font-family="-apple-system,sans-serif" font-size="9" font-weight="700" fill="white" text-anchor="middle">2</text>
    <text x="251" y="557" font-family="-apple-system,sans-serif" font-size="10" fill="#007AFF" text-anchor="middle">Notifications</text>

    <!-- Home indicator -->
    <rect x="112" y="591" width="76" height="4" rx="2" fill="#000" opacity="0.2"/>
  </g>
</svg>
